<?xml version="1.0" encoding="utf-8"?>
<!-- Generator: Adobe Illustrator 15.1.0, SVG Export Plug-In . SVG Version: 6.00 Build 0)  -->
<!DOCTYPE svg PUBLIC "-//W3C//DTD SVG 1.1//EN" "http://www.w3.org/Graphics/SVG/1.1/DTD/svg11.dtd">
<svg version="1.1" id="Layer_1" xmlns="http://www.w3.org/2000/svg" xmlns:xlink="http://www.w3.org/1999/xlink" x="0px" y="0px"
	 width="64px" height="56px" viewBox="0 0 64 56" enable-background="new 0 0 64 56" xml:space="preserve">
<g id="Legs_4_">
	<g>
		<path fill="#735538" d="M42.376,44.525v1.514c0,0.835,0.679,1.514,1.514,1.514h3.026c0.835,0,1.514-0.679,1.514-1.514v-1.514
			H42.376z M3.027,46.039c0,0.835,0.678,1.514,1.513,1.514h3.027c0.835,0,1.513-0.679,1.513-1.514v-1.514H3.027V46.039z"/>
	</g>
</g>
<g id="Head_Board_1_">
	<g>
		<path fill="#A67C52" d="M45.402,5.177c-0.835,0-1.513,0.678-1.513,1.514v6.87c-0.892-0.517-1.923-0.817-3.027-0.817H10.594
			c-1.104,0-2.135,0.3-3.027,0.817V6.69c0-0.835-0.678-1.514-1.514-1.514S4.541,5.855,4.541,6.69v12.107v4.541v7.567h42.375V18.797
			V6.69C46.916,5.855,46.237,5.177,45.402,5.177z"/>
	</g>
</g>
<g id="Pillows_1_">
	<g>
		<path fill="#FFFFFF" d="M22.702,18.797c-0.757,0-4.54,1.514-6.054,1.514h-1.514c-1.513,0-5.297-1.514-6.054-1.514
			c-0.756,0-1.513,0.757-1.513,1.514c0,0.756,1.513,3.027,1.513,4.541s-1.513,3.783-1.513,4.54s0.757,1.514,1.513,1.514
			c0.757,0,4.541-1.514,6.054-1.514h1.514c1.514,0,5.297,1.514,6.054,1.514c0.756,0,1.513-0.757,1.513-1.514
			s-1.513-3.026-1.513-4.54c0-1.477,1.513-3.784,1.513-4.541C24.215,19.554,23.458,18.797,22.702,18.797z M43.89,20.311
			c0-0.757-0.757-1.514-1.514-1.514s-4.541,1.514-6.054,1.514H34.81c-1.515,0-5.297-1.514-6.055-1.514
			c-0.756,0-1.513,0.757-1.513,1.514c0,0.756,1.513,3.027,1.513,4.541s-1.513,3.783-1.513,4.54s0.757,1.514,1.513,1.514
			c0.757,0,4.54-1.514,6.055-1.514h1.513c1.513,0,5.297,1.514,6.054,1.514s1.514-0.757,1.514-1.514s-1.514-3.026-1.514-4.54
			C42.376,23.375,43.89,21.067,43.89,20.311z"/>
	</g>
</g>
<g id="Mattress_1_">
	<g>
		<path fill="#CCCCCC" d="M45.402,24.852H6.054c-0.835,0-1.513,0.677-1.513,1.514v6.053c0,0.835,0.678,1.514,1.513,1.514h39.349
			c0.835,0,1.514-0.679,1.514-1.514v-6.053C46.916,25.528,46.237,24.852,45.402,24.852z"/>
	</g>
</g>
<g id="Frame_4_">
	<g>
		<path fill="#A6634C" d="M48.43,26.365c-0.835,0-1.514,0.678-1.514,1.513v3.027H4.541v-3.027c0-0.835-0.678-1.513-1.513-1.513
			c-0.836,0-1.514,0.678-1.514,1.513v4.54v10.595c0,0.835,0.677,1.513,1.514,1.513H48.43c0.835,0,1.514-0.678,1.514-1.513V32.418
			v-4.54C49.943,27.043,49.265,26.365,48.43,26.365z"/>
	</g>
</g>
<circle fill="#7EC242" cx="49.943" cy="41.778" r="12.034"/>
<g id="Plus_1_">
	<g>
		<path fill="#FFFFFF" d="M55.789,40.344h-4.3v-4.3c0-0.79-0.641-1.434-1.433-1.434c-0.793,0-1.434,0.644-1.434,1.434v4.3h-4.3
			c-0.791,0-1.434,0.641-1.434,1.434c0,0.792,0.643,1.433,1.434,1.433h4.3v4.3c0,0.793,0.641,1.437,1.434,1.437
			c0.792,0,1.433-0.644,1.433-1.437v-4.3h4.3c0.793,0,1.436-0.641,1.436-1.433C57.225,40.984,56.582,40.344,55.789,40.344z"/>
	</g>
</g>
</svg>
