<?xml version="1.0" encoding="iso-8859-1"?>
<!-- Generator: Adobe Illustrator 16.0.0, SVG Export Plug-In . SVG Version: 6.00 Build 0)  -->
<!DOCTYPE svg PUBLIC "-//W3C//DTD SVG 1.1//EN" "http://www.w3.org/Graphics/SVG/1.1/DTD/svg11.dtd">
<svg version="1.1" id="Layer_1" xmlns="http://www.w3.org/2000/svg" xmlns:xlink="http://www.w3.org/1999/xlink" x="0px" y="0px"
	 width="32px" height="32px" viewBox="0 0 32 32" style="enable-background:new 0 0 32 32;" xml:space="preserve">
<g id="_x33_rd">
	<g>
		<path style="fill-rule:evenodd;clip-rule:evenodd;fill:#48A0DC;" d="M18,26h-4c-1.104,0-2,0.896-2,2v2c0,1.104,0.896,2,2,2h4
			c1.104,0,2-0.896,2-2v-2C20,26.896,19.104,26,18,26z M6,26H2c-1.104,0-2,0.896-2,2v2c0,1.104,0.896,2,2,2h4c1.104,0,2-0.896,2-2
			v-2C8,26.896,7.104,26,6,26z M30,26h-4c-1.104,0-2,0.896-2,2v2c0,1.104,0.896,2,2,2h4c1.104,0,2-0.896,2-2v-2
			C32,26.896,31.104,26,30,26z"/>
	</g>
</g>
<g id="_x32_nd">
	<g>
		<path style="fill-rule:evenodd;clip-rule:evenodd;fill:#ED7261;" d="M12,13H8c-1.104,0-2,0.895-2,2v2c0,1.104,0.896,2,2,2h4
			c1.104,0,2-0.896,2-2v-2C14,13.895,13.104,13,12,13z M24,13h-4c-1.104,0-2,0.895-2,2v2c0,1.104,0.896,2,2,2h4c1.104,0,2-0.896,2-2
			v-2C26,13.895,25.104,13,24,13z"/>
	</g>
</g>
<g id="_x31_st">
	<g>
		<path style="fill:#9B7CAB;" d="M18,0h-4c-1.104,0-2,0.896-2,2v2c0,1.104,0.896,2,2,2h4c1.104,0,2-0.896,2-2V2
			C20,0.896,19.104,0,18,0z"/>
	</g>
</g>
<g id="Lines">
	<g>
		<path style="fill-rule:evenodd;clip-rule:evenodd;fill:#CCCCCC;" d="M11,11c0-0.553,0.447-1,1-1h3h2h3c0.552,0,1,0.447,1,1v2h2v-2
			c0-1.657-1.344-3-3-3h-3V6h-2v2h-3c-1.657,0-3,1.343-3,3v2h2V11z M26,21h-3v-2h-2v2H11v-2H9v2H6c-1.657,0-3,1.343-3,3v2h2v-2
			c0-0.553,0.447-1,1-1h3h2h4v3h2v-3h9c0.552,0,1,0.447,1,1v2h2v-2C29,22.343,27.656,21,26,21z"/>
	</g>
</g>
<g>
</g>
<g>
</g>
<g>
</g>
<g>
</g>
<g>
</g>
<g>
</g>
<g>
</g>
<g>
</g>
<g>
</g>
<g>
</g>
<g>
</g>
<g>
</g>
<g>
</g>
<g>
</g>
<g>
</g>
</svg>
