<?xml version="1.0" encoding="utf-8"?>
<!-- Generator: Adobe Illustrator 15.1.0, SVG Export Plug-In . SVG Version: 6.00 Build 0)  -->
<!DOCTYPE svg PUBLIC "-//W3C//DTD SVG 1.1//EN" "http://www.w3.org/Graphics/SVG/1.1/DTD/svg11.dtd">
<svg version="1.1" id="Layer_1" xmlns="http://www.w3.org/2000/svg" xmlns:xlink="http://www.w3.org/1999/xlink" x="0px" y="0px"
	 width="54px" height="54px" viewBox="0 0 54 54" enable-background="new 0 0 54 54" xml:space="preserve">
<g id="Hair_8_">
	<g>
		<path fill="#A67C52" d="M22.358,3.42c-8.855,0-12.776,4.792-12.776,12.777v22.357h25.553V16.197
			C35.137,8.212,29.91,3.42,22.358,3.42z"/>
	</g>
</g>
<g id="Neck_8_">
	<g>
		<polygon fill="#DBB59A" points="25.553,27.377 19.165,27.377 17.567,33.766 17.567,54.525 27.149,54.525 27.149,33.766 		"/>
	</g>
</g>
<g id="Suit_7_">
	<g>
		<path fill="#72BF44" d="M3.194,41.75C0.19,44.752,0,54.525,0,54.525h22.358L15.97,35.361C15.97,35.361,4.695,40.249,3.194,41.75z
			 M41.523,41.75c-1.502-1.501-12.776-6.389-12.776-6.389l-6.389,19.164h22.358C44.717,54.525,44.525,44.752,41.523,41.75z"/>
	</g>
</g>
<g id="Collar_6_">
	<g>
		<path fill="#FFFFFF" d="M7.985,41.75l7.985,1.598l4.791,11.178h1.597l-4.791-20.76L7.985,41.75z M27.149,33.766l-4.791,20.76
			h1.597l4.792-11.178l7.985-1.598L27.149,33.766z"/>
	</g>
</g>
<g id="Head_9_">
	<g>
		<path fill="#F6CBAD" d="M26.752,12.974c-1.249,2.766-5.561,4.82-10.782,4.82c0.007,0-1.579,0-3.171,0
			c0.071,3.127,0.361,5.558,1.575,7.984c1.597,3.195,4.855,6.39,7.985,6.39c3.129,0,6.389-3.195,7.987-6.39
			c1.413-2.829,1.575-5.665,1.594-9.607C31.906,14.351,28.473,12.974,26.752,12.974z"/>
	</g>
</g>
<g id="Headphones">
	<g>
		<path fill="#4D4D4D" d="M36.402,13.834c-1.394-5.04-7.148-8.816-14.044-8.816c-6.895,0-12.649,3.776-14.045,8.816
			c-1.067,0.584-1.925,1.425-1.925,2.364v3.194c0,1.764,3.027,3.194,4.791,3.194v-6.388c0-4.411,5.005-7.986,11.179-7.986
			c6.173,0,11.18,3.575,11.18,7.986v3.194c0,3.424-2.159,6.336-5.187,7.469c-0.429-0.651-1.164-1.082-2-1.082h-3.195
			c-1.324,0-2.396,1.073-2.396,2.396c0,1.321,1.072,2.396,2.396,2.396h3.195c0.235,0,0.458-0.045,0.672-0.107
			c4.709-0.621,8.497-4.163,9.465-8.754c1.025-0.583,1.841-1.403,1.841-2.317v-3.194C38.329,15.259,37.471,14.418,36.402,13.834z"/>
	</g>
</g>
<g id="Grid_6_">
	<g>
		<path fill="#F37544" d="M40.361,31.588h-1.742c-0.48,0-0.87,0.39-0.87,0.871V34.2c0,0.481,0.39,0.871,0.87,0.871h1.742
			c0.481,0,0.871-0.39,0.871-0.871v-1.741C41.232,31.978,40.843,31.588,40.361,31.588z M50.812,31.588h-6.967
			c-0.48,0-0.87,0.39-0.87,0.871V34.2c0,0.481,0.39,0.871,0.87,0.871h6.967c0.48,0,0.871-0.39,0.871-0.871v-1.741
			C51.683,31.978,51.292,31.588,50.812,31.588z M40.361,36.813h-1.742c-0.48,0-0.87,0.39-0.87,0.87v1.742
			c0,0.48,0.39,0.87,0.87,0.87h1.742c0.481,0,0.871-0.39,0.871-0.87v-1.742C41.232,37.203,40.843,36.813,40.361,36.813z
			 M50.812,36.813h-6.967c-0.48,0-0.87,0.39-0.87,0.87v1.742c0,0.48,0.39,0.87,0.87,0.87h6.967c0.48,0,0.871-0.39,0.871-0.87v-1.742
			C51.683,37.203,51.292,36.813,50.812,36.813z M40.361,42.039h-1.742c-0.48,0-0.87,0.39-0.87,0.87v1.742
			c0,0.48,0.39,0.87,0.87,0.87h1.742c0.481,0,0.871-0.39,0.871-0.87v-1.742C41.232,42.429,40.843,42.039,40.361,42.039z
			 M50.812,42.039h-6.967c-0.48,0-0.87,0.39-0.87,0.87v1.742c0,0.48,0.39,0.87,0.87,0.87h6.967c0.48,0,0.871-0.39,0.871-0.87v-1.742
			C51.683,42.429,51.292,42.039,50.812,42.039z"/>
	</g>
</g>
</svg>
