<?xml version="1.0" encoding="utf-8"?>
<!-- Generator: Adobe Illustrator 15.1.0, SVG Export Plug-In . SVG Version: 6.00 Build 0)  -->
<!DOCTYPE svg PUBLIC "-//W3C//DTD SVG 1.1//EN" "http://www.w3.org/Graphics/SVG/1.1/DTD/svg11.dtd">
<svg version="1.1" id="Layer_1" xmlns="http://www.w3.org/2000/svg" xmlns:xlink="http://www.w3.org/1999/xlink" x="0px" y="0px"
	 width="24px" height="24px" viewBox="0 0 24 24" enable-background="new 0 0 24 24" xml:space="preserve">
<g>
	<path d="M23,11h-1.1c-0.5-4-4.2-8.5-8.9-8.9V1c0-0.6-0.4-1-1-1c-0.6,0-1,0.4-1,1v1.1C6.3,2.5,2.5,7,2.1,11H1c-0.6,0-1,0.4-1,1
		c0,0.6,0.4,1,1,1h1.1c0.5,5,4.2,8.5,8.9,8.9V23c0,0.6,0.4,1,1,1c0.6,0,1-0.4,1-1v-1.1c4.7-0.5,8.5-3.9,8.9-8.9H23c0.6,0,1-0.4,1-1
		C24,11.4,23.6,11,23,11z M12,20c-4.4,0-8-3.6-8-8c0-4.4,3.6-8,8-8c4.4,0,8,3.6,8,8C20,16.4,16.4,20,12,20z"/>
	<path d="M12,6c-3.3,0-6,2.7-6,6s2.7,6,6,6s6-2.7,6-6S15.3,6,12,6z M12,17c-2.8,0-5-2.2-5-5s2.2-5,5-5s5,2.2,5,5S14.8,17,12,17z"/>
	<path stroke="#B3D676" stroke-miterlimit="10" d="M12,9c-1.7,0-3,1.3-3,3s1.3,3,3,3s3-1.3,3-3S13.7,9,12,9z M12,14
		c-1.1,0-2-0.9-2-2c0-1.1,0.9-2,2-2c1.1,0,2,0.9,2,2C14,13.1,13.1,14,12,14z"/>
</g>
</svg>
